<svg width="72" height="75" viewBox="0 0 72 75" fill="none" xmlns="http://www.w3.org/2000/svg">
<path fill-rule="evenodd" clip-rule="evenodd" d="M72 55.9275H63.0986C54.0588 55.9275 46.7933 53.0457 36.0001 58.973V47.9951C46.1222 41.2373 54.0126 44.9497 63.0063 44.9497H71.979V55.9275H72Z" fill="#00A070"/>
<path fill-rule="evenodd" clip-rule="evenodd" d="M0 62.0398H8.90141C17.9412 62.0398 25.2067 64.9217 35.9999 58.9944V69.9722C25.8778 76.7301 17.9874 73.0177 8.9937 73.0177H0.0209741V62.0398H0Z" fill="#DC3055"/>
<path fill-rule="evenodd" clip-rule="evenodd" d="M71.9539 33.9722H63.0986C54.0588 33.9722 46.7933 31.0904 36.0001 37.0177V26.0398C46.1222 19.282 54.0126 22.9944 63.0063 22.9944H71.9539V33.9722Z" fill="#00A070"/>
<path fill-rule="evenodd" clip-rule="evenodd" d="M0 40.0592H8.90141C17.9412 40.0592 25.2067 42.9411 35.9999 37.0138V47.9916C25.8778 54.7495 17.9874 51.0371 8.9937 51.0371H0.0209741V40.0592H0Z" fill="#DC3055"/>
<path fill-rule="evenodd" clip-rule="evenodd" d="M72 11.9953H63.0986C54.0588 11.9953 46.7933 9.11345 36.0001 15.0407V4.06289C46.1222 -2.69497 54.0126 1.01745 63.0063 1.01745H71.979V11.9953H72Z" fill="#00A070"/>
<path fill-rule="evenodd" clip-rule="evenodd" d="M0 18.1071H8.90141C17.9412 18.1071 25.2067 20.9889 35.9999 15.0616V26.0395C25.8778 32.7973 17.9874 29.0849 8.9937 29.0849H0.0209741V18.1071H0Z" fill="#DC3055"/>
</svg>
