<svg width="21" height="20" viewBox="0 0 21 20" fill="none" xmlns="http://www.w3.org/2000/svg">
<path d="M14.6667 14.1667V15.8333C14.6667 16.2754 14.4911 16.6993 14.1785 17.0118C13.866 17.3244 13.442 17.5 13 17.5H4.66667C4.22464 17.5 3.80072 17.3244 3.48816 17.0118C3.17559 16.6993 3 16.2754 3 15.8333V7.5C3 7.05797 3.17559 6.63405 3.48816 6.32149C3.80072 6.00893 4.22464 5.83333 4.66667 5.83333H6.33333M6.33333 4.16667C6.33333 3.72464 6.50893 3.30072 6.82149 2.98816C7.13405 2.67559 7.55797 2.5 8 2.5H16.3333C16.7754 2.5 17.1993 2.67559 17.5118 2.98816C17.8244 3.30072 18 3.72464 18 4.16667V12.5C18 12.942 17.8244 13.366 17.5118 13.6785C17.1993 13.9911 16.7754 14.1667 16.3333 14.1667H8C7.55797 14.1667 7.13405 13.9911 6.82149 13.6785C6.50893 13.366 6.33333 12.942 6.33333 12.5V4.16667Z" stroke="#737373" stroke-width="1.8" stroke-linecap="round" stroke-linejoin="round"/>
</svg>
