<svg width="21" height="20" viewBox="0 0 21 20" fill="none" xmlns="http://www.w3.org/2000/svg">
<path d="M7.06605 5.83333V4.16667C7.06605 3.72464 7.24165 3.30072 7.55421 2.98816C7.86677 2.67559 8.29069 2.5 8.73272 2.5H12.066C12.5081 2.5 12.932 2.67559 13.2446 2.98816C13.5571 3.30072 13.7327 3.72464 13.7327 4.16667V5.83333M10.3994 10V10.0083M2.89938 10.8333C5.2257 12.0056 7.79441 12.6162 10.3994 12.6162C13.0044 12.6162 15.5731 12.0056 17.8994 10.8333M2.89938 7.5C2.89938 7.05797 3.07498 6.63405 3.38754 6.32149C3.7001 6.00893 4.12402 5.83333 4.56605 5.83333H16.2327C16.6747 5.83333 17.0987 6.00893 17.4112 6.32149C17.7238 6.63405 17.8994 7.05797 17.8994 7.5V15C17.8994 15.442 17.7238 15.866 17.4112 16.1785C17.0987 16.4911 16.6747 16.6667 16.2327 16.6667H4.56605C4.12402 16.6667 3.7001 16.4911 3.38754 16.1785C3.07498 15.866 2.89938 15.442 2.89938 15V7.5Z" stroke="#00A070" stroke-width="1.8" stroke-linecap="round" stroke-linejoin="round"/>
</svg>
