<svg width="21" height="20" viewBox="0 0 21 20" fill="none" xmlns="http://www.w3.org/2000/svg">
<path d="M7.06606 11.6667V11.675M10.3994 11.6667V11.675M13.7327 11.6667V11.675M7.06606 14.1667V14.175M10.3994 14.1667V14.175M13.7327 14.1667V14.175M3.73273 4.16667C3.73273 3.72464 3.90832 3.30072 4.22088 2.98816C4.53344 2.67559 4.95737 2.5 5.39939 2.5H15.3994C15.8414 2.5 16.2653 2.67559 16.5779 2.98816C16.8905 3.30072 17.0661 3.72464 17.0661 4.16667V15.8333C17.0661 16.2754 16.8905 16.6993 16.5779 17.0118C16.2653 17.3244 15.8414 17.5 15.3994 17.5H5.39939C4.95737 17.5 4.53344 17.3244 4.22088 17.0118C3.90832 16.6993 3.73273 16.2754 3.73273 15.8333V4.16667ZM7.06606 6.66667C7.06606 6.44565 7.15386 6.23369 7.31014 6.07741C7.46642 5.92113 7.67838 5.83333 7.89939 5.83333H12.8994C13.1204 5.83333 13.3324 5.92113 13.4886 6.07741C13.6449 6.23369 13.7327 6.44565 13.7327 6.66667V7.5C13.7327 7.72101 13.6449 7.93298 13.4886 8.08926C13.3324 8.24554 13.1204 8.33333 12.8994 8.33333H7.89939C7.67838 8.33333 7.46642 8.24554 7.31014 8.08926C7.15386 7.93298 7.06606 7.72101 7.06606 7.5V6.66667Z" stroke="#00A070" stroke-width="1.8" stroke-linecap="round" stroke-linejoin="round"/>
</svg>
