<svg width="68" height="68" viewBox="0 0 68 68" fill="none" xmlns="http://www.w3.org/2000/svg">
<path d="M0 34C0 15.2223 15.2223 0 34 0C52.7777 0 68 15.2223 68 34C68 52.7777 52.7777 68 34 68C15.2223 68 0 52.7777 0 34Z" fill="#DC3055" fill-opacity="0.05"/>
<path d="M0.5 34C0.5 15.4985 15.4985 0.5 34 0.5C52.5015 0.5 67.5 15.4985 67.5 34C67.5 52.5015 52.5015 67.5 34 67.5C15.4985 67.5 0.5 52.5015 0.5 34Z" stroke="#DC3055" stroke-opacity="0.1"/>
<path d="M20.5 41.5C20.5 42.2956 20.8161 43.0587 21.3787 43.6213C21.9413 44.1839 22.7044 44.5 23.5 44.5C24.2956 44.5 25.0587 44.1839 25.6213 43.6213C26.1839 43.0587 26.5 42.2956 26.5 41.5C26.5 40.7044 26.1839 39.9413 25.6213 39.3787C25.0587 38.8161 24.2956 38.5 23.5 38.5C22.7044 38.5 21.9413 38.8161 21.3787 39.3787C20.8161 39.9413 20.5 40.7044 20.5 41.5ZM20.5 41.5V34H34M26.5 43H38.5M44.5 43H47.5V34M47.5 34C47.5 32.0109 46.7098 30.1032 45.3033 28.6967C43.8968 27.2902 41.9891 26.5 40 26.5H38.5M47.5 34H40.75L38.5 26.5M38.5 26.5H34V43M22 34V25M22 25L49 20.5V23.5M22 25L28 28V34M38.5 41.5C38.5 42.2956 38.8161 43.0587 39.3787 43.6213C39.9413 44.1839 40.7044 44.5 41.5 44.5C42.2956 44.5 43.0587 44.1839 43.6213 43.6213C44.1839 43.0587 44.5 42.2956 44.5 41.5C44.5 40.7044 44.1839 39.9413 43.6213 39.3787C43.0587 38.8161 42.2956 38.5 41.5 38.5C40.7044 38.5 39.9413 38.8161 39.3787 39.3787C38.8161 39.9413 38.5 40.7044 38.5 41.5Z" stroke="#DC3055" stroke-width="2.2" stroke-linecap="round" stroke-linejoin="round"/>
</svg>
