<svg width="20" height="20" viewBox="0 0 20 20" fill="none" xmlns="http://www.w3.org/2000/svg">
<path d="M4.16667 16.6667C4.16667 17.1087 4.34226 17.5326 4.65482 17.8452C4.96738 18.1578 5.39131 18.3334 5.83333 18.3334C6.27536 18.3334 6.69928 18.1578 7.01184 17.8452C7.3244 17.5326 7.5 17.1087 7.5 16.6667M4.16667 16.6667C4.16667 16.2247 4.34226 15.8007 4.65482 15.4882C4.96738 15.1756 5.39131 15 5.83333 15C6.27536 15 6.69928 15.1756 7.01184 15.4882C7.3244 15.8007 7.5 16.2247 7.5 16.6667M4.16667 16.6667H2.5V11.6667M7.5 16.6667H12.5M12.5 16.6667C12.5 17.1087 12.6756 17.5326 12.9882 17.8452C13.3007 18.1578 13.7246 18.3334 14.1667 18.3334C14.6087 18.3334 15.0326 18.1578 15.3452 17.8452C15.6577 17.5326 15.8333 17.1087 15.8333 16.6667M12.5 16.6667C12.5 16.2247 12.6756 15.8007 12.9882 15.4882C13.3007 15.1756 13.7246 15 14.1667 15C14.6087 15 15.0326 15.1756 15.3452 15.4882C15.6577 15.8007 15.8333 16.2247 15.8333 16.6667M15.8333 16.6667H17.5V13.3334C17.5 12.8913 17.3244 12.4674 17.0118 12.1548C16.6993 11.8423 16.2754 11.6667 15.8333 11.6667H15M2.5 11.6667L4.16667 7.50002H11.6667L15 11.6667M2.5 11.6667H15M10 11.6667V7.50002M2.5 5.00002L10 1.66669L17.5 5.00002" stroke="#737373" stroke-width="1.8" stroke-linecap="round" stroke-linejoin="round"/>
</svg>
