<svg width="18" height="18" viewBox="0 0 18 18" fill="none" xmlns="http://www.w3.org/2000/svg">
<g opacity="1">
<path d="M15.579 7.617L14.553 4.53825C14.2462 3.618 13.389 3 12.4193 3H5.58075C4.611 3 3.75375 3.618 3.447 4.53825L2.421 7.617C1.881 7.84425 1.5 8.37825 1.5 9V12.75C1.5 13.3147 1.81725 13.8015 2.27925 14.0573C2.2695 14.1068 2.25 14.1517 2.25 14.2035V15.75C2.25 16.1648 2.58525 16.5 3 16.5H3.75C4.16475 16.5 4.5 16.1648 4.5 15.75V14.25H13.5V15.75C13.5 16.1648 13.8352 16.5 14.25 16.5H15C15.4148 16.5 15.75 16.1648 15.75 15.75V14.2035C15.75 14.1517 15.7305 14.106 15.7208 14.0573C16.1828 13.8015 16.5 13.3147 16.5 12.75V9C16.5 8.37825 16.119 7.84425 15.579 7.617ZM3 12.75V9H15L15.0015 12.75H3ZM5.58075 4.5H12.4185C12.7418 4.5 13.0282 4.7055 13.1302 5.013L13.9598 7.5H4.04025L4.869 5.013C4.97175 4.7055 5.25825 4.5 5.58075 4.5Z" fill="white"/>
<path d="M4.875 12C5.49632 12 6 11.4963 6 10.875C6 10.2537 5.49632 9.75 4.875 9.75C4.25368 9.75 3.75 10.2537 3.75 10.875C3.75 11.4963 4.25368 12 4.875 12Z" fill="white"/>
<path d="M13.125 12C13.7463 12 14.25 11.4963 14.25 10.875C14.25 10.2537 13.7463 9.75 13.125 9.75C12.5037 9.75 12 10.2537 12 10.875C12 11.4963 12.5037 12 13.125 12Z" fill="white"/>
</g>
</svg>
