<svg width="17" height="13" viewBox="0 0 17 13" fill="none" xmlns="http://www.w3.org/2000/svg">
<path d="M2.66667 10.1667C2.66667 10.6087 2.84226 11.0326 3.15482 11.3452C3.46738 11.6577 3.89131 11.8333 4.33333 11.8333C4.77536 11.8333 5.19928 11.6577 5.51184 11.3452C5.8244 11.0326 6 10.6087 6 10.1667M2.66667 10.1667C2.66667 9.72464 2.84226 9.30072 3.15482 8.98816C3.46738 8.67559 3.89131 8.5 4.33333 8.5C4.77536 8.5 5.19928 8.67559 5.51184 8.98816C5.8244 9.30072 6 9.72464 6 10.1667M2.66667 10.1667H1V5.16667M6 10.1667H11M11 10.1667C11 10.6087 11.1756 11.0326 11.4882 11.3452C11.8007 11.6577 12.2246 11.8333 12.6667 11.8333C13.1087 11.8333 13.5326 11.6577 13.8452 11.3452C14.1577 11.0326 14.3333 10.6087 14.3333 10.1667M11 10.1667C11 9.72464 11.1756 9.30072 11.4882 8.98816C11.8007 8.67559 12.2246 8.5 12.6667 8.5C13.1087 8.5 13.5326 8.67559 13.8452 8.98816C14.1577 9.30072 14.3333 9.72464 14.3333 10.1667M14.3333 10.1667H16V6.83333C16 6.39131 15.8244 5.96738 15.5118 5.65482C15.1993 5.34226 14.7754 5.16667 14.3333 5.16667H13.5M1 5.16667L2.66667 1H10.1667L13.5 5.16667M1 5.16667H13.5M8.5 5.16667V1" stroke="#737373" stroke-width="1.8" stroke-linecap="round" stroke-linejoin="round"/>
</svg>
