<svg width="68" height="68" viewBox="0 0 68 68" fill="none" xmlns="http://www.w3.org/2000/svg">
<path d="M0 34C0 15.2223 15.2223 0 34 0C52.7777 0 68 15.2223 68 34C68 52.7777 52.7777 68 34 68C15.2223 68 0 52.7777 0 34Z" fill="#DC3055" fill-opacity="0.05"/>
<path d="M0.5 34C0.5 15.4985 15.4985 0.5 34 0.5C52.5015 0.5 67.5 15.4985 67.5 34C67.5 52.5015 52.5015 67.5 34 67.5C15.4985 67.5 0.5 52.5015 0.5 34Z" stroke="#DC3055" stroke-opacity="0.1"/>
<path d="M44.5 25H23.5C22.7044 25 21.9413 25.3161 21.3787 25.8787C20.8161 26.4413 20.5 27.2044 20.5 28V43C20.5 43.7956 20.8161 44.5587 21.3787 45.1213C21.9413 45.6839 22.7044 46 23.5 46H44.5C45.2956 46 46.0587 45.6839 46.6213 45.1213C47.1839 44.5587 47.5 43.7956 47.5 43V28C47.5 27.2044 47.1839 26.4413 46.6213 25.8787C46.0587 25.3161 45.2956 25 44.5 25ZM44.5 25V22M25 25V22M25.75 35.5H30.25M37.75 35.5H42.25M40 33.25V37.75" stroke="#DC3055" stroke-width="2.2" stroke-linecap="round" stroke-linejoin="round"/>
</svg>
