<svg width="20" height="20" viewBox="0 0 20 20" fill="none" xmlns="http://www.w3.org/2000/svg">
<path d="M2.5 14.1667C2.5 14.6087 2.67559 15.0326 2.98816 15.3452C3.30072 15.6577 3.72464 15.8333 4.16667 15.8333C4.60869 15.8333 5.03262 15.6577 5.34518 15.3452C5.65774 15.0326 5.83333 14.6087 5.83333 14.1667C5.83333 13.7246 5.65774 13.3007 5.34518 12.9882C5.03262 12.6756 4.60869 12.5 4.16667 12.5C3.72464 12.5 3.30072 12.6756 2.98816 12.9882C2.67559 13.3007 2.5 13.7246 2.5 14.1667ZM2.5 14.1667V10H10M5.83333 15H12.5M15.8333 15H17.5V10M17.5 10C17.5 8.89493 17.061 7.83512 16.2796 7.05372C15.4982 6.27232 14.4384 5.83333 13.3333 5.83333H12.5M17.5 10H13.75L12.5 5.83333M12.5 5.83333H10V15M3.33333 10V5M3.33333 5L18.3333 2.5V4.16667M3.33333 5L6.66667 6.66667V10M12.5 14.1667C12.5 14.6087 12.6756 15.0326 12.9882 15.3452C13.3007 15.6577 13.7246 15.8333 14.1667 15.8333C14.6087 15.8333 15.0326 15.6577 15.3452 15.3452C15.6577 15.0326 15.8333 14.6087 15.8333 14.1667C15.8333 13.7246 15.6577 13.3007 15.3452 12.9882C15.0326 12.6756 14.6087 12.5 14.1667 12.5C13.7246 12.5 13.3007 12.6756 12.9882 12.9882C12.6756 13.3007 12.5 13.7246 12.5 14.1667Z" stroke="#737373" stroke-width="1.8" stroke-linecap="round" stroke-linejoin="round"/>
</svg>
