<svg width="20" height="20" viewBox="0 0 20 20" fill="none" xmlns="http://www.w3.org/2000/svg">
<path d="M10 6.66679V17.5001M10 6.66679C9.69856 5.42462 9.17954 4.36267 8.51061 3.61942C7.84169 2.87617 7.0539 2.48611 6.25 2.50012C5.69747 2.50012 5.16756 2.71961 4.77686 3.11031C4.38616 3.50102 4.16667 4.03092 4.16667 4.58345C4.16667 5.13599 4.38616 5.66589 4.77686 6.05659C5.16756 6.44729 5.69747 6.66679 6.25 6.66679M10 6.66679C10.3014 5.42462 10.8205 4.36267 11.4894 3.61942C12.1583 2.87617 12.9461 2.48611 13.75 2.50012C14.3025 2.50012 14.8324 2.71961 15.2231 3.11031C15.6138 3.50102 15.8333 4.03092 15.8333 4.58345C15.8333 5.13599 15.6138 5.66589 15.2231 6.05659C14.8324 6.44729 14.3025 6.66679 13.75 6.66679M15.8333 10.0001V15.8335C15.8333 16.2755 15.6577 16.6994 15.3452 17.012C15.0326 17.3245 14.6087 17.5001 14.1667 17.5001H5.83333C5.39131 17.5001 4.96738 17.3245 4.65482 17.012C4.34226 16.6994 4.16667 16.2755 4.16667 15.8335V10.0001M2.5 7.50012C2.5 7.27911 2.5878 7.06715 2.74408 6.91086C2.90036 6.75458 3.11232 6.66679 3.33333 6.66679H16.6667C16.8877 6.66679 17.0996 6.75458 17.2559 6.91086C17.4122 7.06715 17.5 7.27911 17.5 7.50012V9.16679C17.5 9.3878 17.4122 9.59976 17.2559 9.75604C17.0996 9.91232 16.8877 10.0001 16.6667 10.0001H3.33333C3.11232 10.0001 2.90036 9.91232 2.74408 9.75604C2.5878 9.59976 2.5 9.3878 2.5 9.16679V7.50012Z" stroke="#DC3055" stroke-width="1.8" stroke-linecap="round" stroke-linejoin="round"/>
</svg>
