<svg width="20" height="20" viewBox="0 0 20 20" fill="none" xmlns="http://www.w3.org/2000/svg">
<path d="M13.75 6.24992V6.25825M3.33334 6.66659C3.33334 5.78253 3.68453 4.93468 4.30965 4.30956C4.93478 3.68444 5.78262 3.33325 6.66668 3.33325H13.3333C14.2174 3.33325 15.0652 3.68444 15.6904 4.30956C16.3155 4.93468 16.6667 5.78253 16.6667 6.66659V13.3333C16.6667 14.2173 16.3155 15.0652 15.6904 15.6903C15.0652 16.3154 14.2174 16.6666 13.3333 16.6666H6.66668C5.78262 16.6666 4.93478 16.3154 4.30965 15.6903C3.68453 15.0652 3.33334 14.2173 3.33334 13.3333V6.66659ZM7.50001 9.99992C7.50001 10.663 7.7634 11.2988 8.23224 11.7677C8.70108 12.2365 9.33697 12.4999 10 12.4999C10.6631 12.4999 11.2989 12.2365 11.7678 11.7677C12.2366 11.2988 12.5 10.663 12.5 9.99992C12.5 9.33688 12.2366 8.70099 11.7678 8.23215C11.2989 7.76331 10.6631 7.49992 10 7.49992C9.33697 7.49992 8.70108 7.76331 8.23224 8.23215C7.7634 8.70099 7.50001 9.33688 7.50001 9.99992Z" stroke="#737373" stroke-width="1.8" stroke-linecap="round" stroke-linejoin="round"/>
</svg>
