<svg width="20" height="20" viewBox="0 0 20 20" fill="none" xmlns="http://www.w3.org/2000/svg">
<path d="M11.25 5.83333L13.3333 15L9.99999 18.3333L6.66666 15L8.74999 5.83333M11.25 5.83333L12.0775 3.62583C12.1247 3.49978 12.1407 3.36416 12.1241 3.23057C12.1076 3.09699 12.0588 2.96941 11.9822 2.85875C11.9055 2.7481 11.8032 2.65767 11.6839 2.59519C11.5647 2.53271 11.4321 2.50005 11.2975 2.5H8.70249C8.56787 2.50005 8.43527 2.53271 8.31604 2.59519C8.1968 2.65767 8.09447 2.7481 8.01781 2.85875C7.94114 2.96941 7.89243 3.09699 7.87583 3.23057C7.85923 3.36416 7.87524 3.49978 7.92249 3.62583L8.74999 5.83333M11.25 5.83333H8.74999M11.25 5.83333L15.4167 10.4167" stroke="#737373" stroke-width="1.8" stroke-linecap="round" stroke-linejoin="round"/>
</svg>
