<svg width="68" height="68" viewBox="0 0 68 68" fill="none" xmlns="http://www.w3.org/2000/svg">
<path d="M0 34C0 15.2223 15.2223 0 34 0C52.7777 0 68 15.2223 68 34C68 52.7777 52.7777 68 34 68C15.2223 68 0 52.7777 0 34Z" fill="#DC3055" fill-opacity="0.05"/>
<path d="M0.5 34C0.5 15.4985 15.4985 0.5 34 0.5C52.5015 0.5 67.5 15.4985 67.5 34C67.5 52.5015 52.5015 67.5 34 67.5C15.4985 67.5 0.5 52.5015 0.5 34Z" stroke="#DC3055" stroke-opacity="0.1"/>
<path d="M46 29.5V40C46 40.5967 45.7629 41.169 45.341 41.591C44.919 42.0129 44.3467 42.25 43.75 42.25C43.1533 42.25 42.581 42.0129 42.159 41.591C41.7371 41.169 41.5 40.5967 41.5 40V35.5C41.5 34.7044 41.1839 33.9413 40.6213 33.3787C40.0587 32.8161 39.2956 32.5 38.5 32.5H22M46 29.5L41.5 25M46 29.5H44.5C44.1022 29.5 43.7206 29.342 43.4393 29.0607C43.158 28.7794 43 28.3978 43 28V26.5M22 46V25C22 24.2044 22.3161 23.4413 22.8787 22.8787C23.4413 22.3161 24.2044 22 25 22H34C34.7956 22 35.5587 22.3161 36.1213 22.8787C36.6839 23.4413 37 24.2044 37 25V46M20.5 46H38.5" stroke="#DC3055" stroke-width="2.2" stroke-linecap="round" stroke-linejoin="round"/>
</svg>
