<svg width="18" height="18" viewBox="0 0 18 18" fill="none" xmlns="http://www.w3.org/2000/svg">
<path d="M15.4223 2.50493C15.2033 2.35568 14.9221 2.33318 14.6806 2.44568L1.93056 8.44568C1.66431 8.57168 1.49631 8.84093 1.50006 9.13493C1.50456 9.42893 1.68006 9.69368 1.95006 9.81143L6.00006 11.5837V16.6252L10.3771 13.4992L13.9501 15.0622C14.0461 15.1049 14.1488 15.1252 14.2501 15.1252C14.3858 15.1252 14.5201 15.0884 14.6401 15.0157C14.8486 14.8889 14.9828 14.6684 14.9993 14.4247L15.7493 3.17468C15.7658 2.90918 15.6421 2.65493 15.4223 2.50493ZM13.5728 13.2599L9.62106 11.5304L12.0001 6.87518L6.26331 10.0627L4.06431 9.10043L14.1676 4.34543L13.5728 13.2599Z" fill="#9397AD"/>
</svg>
