<svg width="122" height="16" viewBox="0 0 122 16" fill="none" xmlns="http://www.w3.org/2000/svg">
<path d="M57.5682 8.31638H56.1497V11.5653C56.1497 12.5723 55.8169 13.2204 54.8975 13.2204C53.9605 13.2204 53.4965 12.5285 53.4965 11.5302V8.31638H52.0779V11.7667C52.0779 13.5881 53.3038 14.5074 54.8975 14.5074C56.3861 14.5074 57.5682 13.7369 57.5682 11.8192V8.31638Z" fill="#0E47BB"/>
<path d="M59.6961 9.56864H62.9009L62.2442 10.3133C61.3422 11.347 60.4491 12.3808 59.5472 13.4144V14.4476H64.8273V13.1956H61.3773L64.7485 9.34979V8.31643H59.6961V9.56864Z" fill="#0E47BB"/>
<path d="M66.9376 14.4476H69.6784C71.1144 14.4476 72.1476 13.9136 72.1476 12.6349C72.1476 11.8729 71.7186 11.3561 71.0006 11.2423C71.6048 10.997 71.9463 10.4713 71.9463 9.87542C71.9463 8.96445 71.3508 8.31643 69.7484 8.31643H66.9376V14.4476ZM69.5908 11.8641C70.3876 11.8641 70.6854 12.1094 70.6854 12.5824C70.6854 13.1254 70.3089 13.3269 69.4595 13.3269H68.3561V11.8641H69.5908ZM69.442 9.4373C70.2212 9.4373 70.4839 9.64761 70.4839 10.1207C70.4839 10.5152 70.1862 10.8305 69.617 10.8305H68.3561V9.4373H69.442Z" fill="#0E47BB"/>
<path d="M74.3542 14.4476H79.2666V13.2831H75.7728V11.8994H78.9601V10.7786H75.7728V9.48113H79.1878V8.31643H74.3542V14.4476Z" fill="#0E47BB"/>
<path d="M81.5958 14.4476H83.0144V12.0915L83.2771 11.8025L85.5012 14.4476H87.3226L84.6431 11.2332L87.3138 8.31643H85.4575L83.0144 11.1544V8.31643H81.5958V14.4476Z" fill="#0E47BB"/>
<path d="M89.1702 14.4476H90.5887V8.31643H89.1702V14.4476Z" fill="#0E47BB"/>
<path d="M96.6919 12.7569C96.6919 13.1073 96.4467 13.3786 95.6411 13.3786C94.8793 13.3786 94.0562 13.0284 93.5309 12.4591L92.7865 13.3963C93.3295 14.0792 94.2401 14.587 95.685 14.587C97.156 14.587 98.1542 13.7553 98.1542 12.6518C98.1542 10.4449 94.4766 11.0317 94.4766 9.98075C94.4766 9.57791 94.8181 9.38524 95.501 9.38524C96.1928 9.38524 96.9195 9.59555 97.3837 9.99839L97.9616 9.00004C97.4887 8.50968 96.578 8.17698 95.5536 8.17698C93.9774 8.17698 93.023 9.07005 93.023 10.0246C93.023 12.3891 96.6919 11.6359 96.6919 12.7569Z" fill="#0E47BB"/>
<path d="M99.6953 9.56864H101.683V14.4476H103.102V9.56864H105.089V8.31643H99.6953V9.56864Z" fill="#0E47BB"/>
<path d="M105.605 14.4476H106.962L107.47 13.3189H110.185L110.684 14.4476H112.085L109.397 8.31643H108.293L105.605 14.4476ZM108.512 10.9803C108.591 10.7875 108.801 10.1479 108.871 10.1302C108.941 10.3757 109.011 10.5771 109.099 10.7875L109.651 12.1543H107.978L108.512 10.9803Z" fill="#0E47BB"/>
<path d="M119.537 14.4476V8.31643H118.249V11.5397C118.249 11.7675 118.276 12.109 118.293 12.3368C118.214 12.328 117.82 11.7149 117.733 11.5923L115.045 8.31643H113.88V14.4476H115.167V11.2595C115.167 11.023 115.15 10.6814 115.123 10.4274C115.202 10.4624 115.666 11.1455 115.789 11.2857L118.363 14.4476H119.537Z" fill="#0E47BB"/>
<path d="M1.40286 14.4476H4.34911V1.71359H1.40286V14.4476Z" fill="#0E47BB"/>
<path d="M19.5166 14.4476V1.71359H16.8432V8.40807C16.8432 8.88121 16.8976 9.5905 16.9339 10.0636C16.7705 10.0453 15.9521 8.77187 15.7701 8.5174L10.187 1.71359H7.76802V14.4476H10.4415V7.82614C10.4415 7.33496 10.4051 6.62539 10.3505 6.09786C10.5142 6.17056 11.4782 7.58943 11.7327 7.88053L17.0796 14.4476H19.5166Z" fill="#0E47BB"/>
<path d="M28.9915 14.6785C31.4469 14.6785 33.2836 13.733 34.5022 12.4781V7.29024H28.5006V9.63874H31.9561V11.2405C30.9193 11.914 29.8465 12.096 29.0281 12.096C26.7729 12.096 25.1906 10.567 25.1906 8.09139C25.1906 5.623 26.7729 4.1009 29.0281 4.1009C30.21 4.1009 31.1921 4.42697 32.0105 5.13377L33.7565 3.40964C32.5743 2.28215 30.992 1.51819 28.9915 1.51819C25.0998 1.51819 22.2809 4.20968 22.2809 8.09139C22.2809 11.9687 25.0998 14.6785 28.9915 14.6785Z" fill="#0E47BB"/>
<path d="M43.6134 1.57152C39.7581 1.57152 36.9389 4.24498 36.9389 8.08062C36.9389 11.9165 39.7217 14.5897 43.6134 14.5897C47.4871 14.5897 50.3062 11.9165 50.3062 8.08062C50.3062 4.24498 47.5237 1.57152 43.6134 1.57152ZM43.6134 12.0256C41.3948 12.0256 39.8488 10.5168 39.8488 8.08062C39.8488 5.62667 41.3948 4.13592 43.6134 4.13592C45.8504 4.13592 47.3964 5.62667 47.3964 8.08062C47.3964 10.5168 45.8504 12.0256 43.6134 12.0256Z" fill="#0E47BB"/>
</svg>
