<svg width="16" height="16" viewBox="0 0 16 16" fill="none" xmlns="http://www.w3.org/2000/svg">
<path d="M2 6.66659H14M4.66667 9.99992H4.67333M7.33333 9.99992H8.66667M2 5.33325C2 4.80282 2.21071 4.29411 2.58579 3.91904C2.96086 3.54397 3.46957 3.33325 4 3.33325H12C12.5304 3.33325 13.0391 3.54397 13.4142 3.91904C13.7893 4.29411 14 4.80282 14 5.33325V10.6666C14 11.197 13.7893 11.7057 13.4142 12.0808C13.0391 12.4559 12.5304 12.6666 12 12.6666H4C3.46957 12.6666 2.96086 12.4559 2.58579 12.0808C2.21071 11.7057 2 11.197 2 10.6666V5.33325Z" stroke="white" stroke-width="1.6" stroke-linecap="round" stroke-linejoin="round"/>
</svg>
