<svg width="21" height="20" viewBox="0 0 21 20" fill="none" xmlns="http://www.w3.org/2000/svg">
<path d="M3.73271 11.6667L10.3994 9.16667L17.066 11.6667M10.3994 2.5C12.3459 4.22215 14.8864 5.11881 17.4827 5C17.8607 6.28585 17.9764 7.63456 17.8228 8.96598C17.6693 10.2974 17.2496 11.5844 16.5889 12.7504C15.9281 13.9165 15.0397 14.9378 13.9764 15.7537C12.9131 16.5696 11.6967 17.1635 10.3994 17.5C9.10205 17.1635 7.88561 16.5696 6.82233 15.7537C5.75905 14.9378 4.87064 13.9165 4.20987 12.7504C3.54911 11.5844 3.12949 10.2974 2.97594 8.96598C2.82239 7.63456 2.93805 6.28585 3.31604 5C5.91232 5.11881 8.45285 4.22215 10.3994 2.5Z" stroke="#00A070" stroke-width="1.8" stroke-linecap="round" stroke-linejoin="round"/>
</svg>
