<svg width="68" height="68" viewBox="0 0 68 68" fill="none" xmlns="http://www.w3.org/2000/svg">
<path d="M0.5 34C0.5 15.4985 15.4985 0.5 34 0.5C52.5015 0.5 67.5 15.4985 67.5 34C67.5 52.5015 52.5015 67.5 34 67.5C15.4985 67.5 0.5 52.5015 0.5 34Z" fill="#0A0A0A" fill-opacity="0.03"/>
<path d="M0.5 34C0.5 15.4985 15.4985 0.5 34 0.5C52.5015 0.5 67.5 15.4985 67.5 34C67.5 52.5015 52.5015 67.5 34 67.5C15.4985 67.5 0.5 52.5015 0.5 34Z" stroke="#EFEFEF"/>
<path d="M42.505 42.5005C40.1909 44.9266 37.2453 46.6581 34 47.5C31.6648 46.8943 29.4752 45.8254 27.5613 44.3567C25.6474 42.8881 24.0483 41.0497 22.8589 38.9508C21.6695 36.8519 20.9142 34.5353 20.6378 32.1388C20.3614 29.7422 20.5696 27.3145 21.25 25C22.441 25.054 23.6245 24.991 24.7855 24.814M29.4775 23.425C31.1232 22.6824 32.6478 21.6964 34 20.5C37.5037 23.5999 42.0767 25.2138 46.75 25C47.4365 27.3356 47.6421 29.7862 47.3544 32.2036C47.0667 34.6209 46.2916 36.9548 45.076 39.064M20.5 20.5L47.5 47.5" stroke="#A3A3A3" stroke-width="2.2" stroke-linecap="round" stroke-linejoin="round"/>
</svg>
