<svg width="48" height="48" viewBox="0 0 48 48" fill="none" xmlns="http://www.w3.org/2000/svg">
<path d="M12 40.1V40C12 37.8783 12.8429 35.8434 14.3431 34.3431C15.8434 32.8429 17.8783 32 20 32H28C30.1217 32 32.1566 32.8429 33.6569 34.3431C35.1571 35.8434 36 37.8783 36 40V40.1M24 26C25.5913 26 27.1174 25.3679 28.2426 24.2426C29.3679 23.1174 30 21.5913 30 20C30 18.4087 29.3679 16.8826 28.2426 15.7574C27.1174 14.6321 25.5913 14 24 14C22.4087 14 20.8826 14.6321 19.7574 15.7574C18.6321 16.8826 18 18.4087 18 20C18 21.5913 18.6321 23.1174 19.7574 24.2426C20.8826 25.3679 22.4087 26 24 26ZM24 6C38.4 6 42 9.6 42 24C42 38.4 38.4 42 24 42C9.6 42 6 38.4 6 24C6 9.6 9.6 6 24 6Z" stroke="#00A070" stroke-width="3.6" stroke-linecap="round" stroke-linejoin="round"/>
</svg>
