<svg width="134" height="24" viewBox="0 0 134 24" fill="none" xmlns="http://www.w3.org/2000/svg">
<path fill-rule="evenodd" clip-rule="evenodd" d="M23.2496 18.1529H20.3752C17.4562 18.1529 15.1101 17.2223 11.6248 19.1363V15.5915C14.8934 13.4093 17.4413 14.6081 20.3454 14.6081H23.2428V18.1529H23.2496Z" fill="#00A070"/>
<path fill-rule="evenodd" clip-rule="evenodd" d="M0 20.1266H2.87437C5.79343 20.1266 8.13952 21.0571 11.6248 19.1432V22.688C8.35625 24.8702 5.80833 23.6714 2.90417 23.6714H0.00677277V20.1266H0Z" fill="#DC3055"/>
<path fill-rule="evenodd" clip-rule="evenodd" d="M23.2347 11.0632H20.3752C17.4562 11.0632 15.1101 10.1326 11.6248 12.0466V8.50174C14.8934 6.31955 17.4413 7.51833 20.3454 7.51833H23.2347V11.0632Z" fill="#00A070"/>
<path fill-rule="evenodd" clip-rule="evenodd" d="M0 13.0287H2.87437C5.79343 13.0287 8.13952 13.9592 11.6248 12.0453V15.5901C8.35625 17.7723 5.80833 16.5735 2.90417 16.5735H0.00677277V13.0287H0Z" fill="#DC3055"/>
<path fill-rule="evenodd" clip-rule="evenodd" d="M23.2496 3.96665H20.3752C17.4562 3.96665 15.1101 3.03607 11.6248 4.95005V1.40518C14.8934 -0.777004 17.4413 0.421777 20.3454 0.421777H23.2428V3.96665H23.2496Z" fill="#00A070"/>
<path fill-rule="evenodd" clip-rule="evenodd" d="M0 5.94029H2.87437C5.79343 5.94029 8.13952 6.87086 11.6248 4.95688V8.50175C8.35625 10.6839 5.80833 9.48516 2.90417 9.48516H0.00677277V5.94029H0Z" fill="#DC3055"/>
<path d="M89.9526 17.4389V0.942383H96.461C97.7122 0.942383 98.7781 1.18135 99.6588 1.65927C100.539 2.13183 101.211 2.78965 101.673 3.63273C102.14 4.47044 102.373 5.43703 102.373 6.5325C102.373 7.62797 102.137 8.59456 101.664 9.43228C101.192 10.27 100.507 10.9224 99.6105 11.3896C98.7191 11.8568 97.6397 12.0904 96.3724 12.0904H92.2241V9.29534H95.8086C96.4798 9.29534 97.0329 9.17989 97.4679 8.94898C97.9082 8.7127 98.2358 8.38782 98.4506 7.97433C98.6708 7.55548 98.7808 7.07487 98.7808 6.5325C98.7808 5.98477 98.6708 5.50684 98.4506 5.09872C98.2358 4.68524 97.9082 4.36573 97.4679 4.14019C97.0275 3.90928 96.4691 3.79383 95.7925 3.79383H93.4404V17.4389H89.9526Z" fill="#DC3055"/>
<path d="M107.325 0.942383V17.4389H103.894V0.942383H107.325Z" fill="#DC3055"/>
<path d="M117.328 12.1709V5.06651H120.759V17.4389H117.465V15.1915H117.336C117.056 15.9165 116.592 16.4991 115.942 16.9395C115.298 17.3798 114.511 17.6 113.582 17.6C112.755 17.6 112.027 17.412 111.399 17.0361C110.771 16.6602 110.28 16.1259 109.925 15.4332C109.576 14.7405 109.399 13.9108 109.394 12.9442V5.06651H112.825V12.332C112.83 13.0624 113.026 13.6396 113.413 14.0639C113.8 14.4881 114.318 14.7002 114.968 14.7002C115.381 14.7002 115.768 14.6062 116.127 14.4183C116.487 14.225 116.777 13.9403 116.997 13.5645C117.223 13.1886 117.333 12.7241 117.328 12.1709Z" fill="#DC3055"/>
<path d="M133.117 8.59456L129.976 8.78788C129.922 8.51938 129.807 8.27774 129.63 8.06294C129.452 7.84277 129.219 7.66825 128.929 7.53937C128.644 7.40512 128.303 7.33799 127.906 7.33799C127.374 7.33799 126.926 7.45076 126.561 7.6763C126.196 7.89647 126.013 8.19182 126.013 8.56234C126.013 8.85769 126.131 9.10739 126.367 9.31145C126.604 9.51551 127.009 9.67929 127.584 9.8028L129.823 10.2539C131.026 10.5009 131.923 10.8983 132.513 11.446C133.104 11.9937 133.399 12.7133 133.399 13.6047C133.399 14.4156 133.16 15.1271 132.682 15.7393C132.21 16.3515 131.56 16.8294 130.733 17.1731C129.912 17.5114 128.964 17.6805 127.89 17.6805C126.252 17.6805 124.947 17.3395 123.975 16.6575C123.009 15.9702 122.442 15.0358 122.276 13.8544L125.651 13.6772C125.753 14.1766 126 14.5579 126.392 14.821C126.784 15.0788 127.286 15.2077 127.898 15.2077C128.499 15.2077 128.983 15.0922 129.348 14.8613C129.718 14.625 129.906 14.3216 129.912 13.9511C129.906 13.6396 129.775 13.3846 129.517 13.1859C129.259 12.9818 128.862 12.8261 128.325 12.7187L126.182 12.2918C124.974 12.0501 124.074 11.6313 123.484 11.0352C122.898 10.4391 122.606 9.67929 122.606 8.75566C122.606 7.96091 122.821 7.27624 123.25 6.70165C123.685 6.12707 124.295 5.68405 125.079 5.37259C125.868 5.06114 126.792 4.90541 127.85 4.90541C129.412 4.90541 130.642 5.23566 131.539 5.89616C132.441 6.55667 132.967 7.45613 133.117 8.59456Z" fill="#DC3055"/>
<path d="M26.785 17.4389V0.942427H37.9008V3.81804H30.2728V7.74884H37.3289V10.6244H30.2728V14.5633H37.9331V17.4389H26.785Z" fill="#00A070"/>
<path d="M39.9288 22.0786V5.06655H43.3119V7.14472H43.4649C43.6153 6.81178 43.8328 6.47348 44.1174 6.1298C44.4074 5.78075 44.7833 5.49078 45.2451 5.25987C45.7123 5.02359 46.2922 4.90545 46.9849 4.90545C47.8871 4.90545 48.7194 5.14173 49.482 5.61428C50.2445 6.08147 50.854 6.78762 51.3104 7.73273C51.7669 8.67247 51.9951 9.85118 51.9951 11.2688C51.9951 12.6489 51.7722 13.8142 51.3265 14.7647C50.8862 15.7098 50.2848 16.4267 49.5222 16.9153C48.7651 17.3986 47.9166 17.6403 46.9769 17.6403C46.311 17.6403 45.7445 17.5302 45.2773 17.31C44.8155 17.0899 44.4369 16.8133 44.1415 16.4804C43.8462 16.1421 43.6207 15.8011 43.4649 15.4574H43.3602V22.0786H39.9288ZM43.2877 11.2527C43.2877 11.9884 43.3898 12.6301 43.5938 13.1779C43.7979 13.7256 44.0932 14.1525 44.4799 14.4586C44.8665 14.7593 45.3364 14.9097 45.8895 14.9097C46.4479 14.9097 46.9205 14.7566 47.3071 14.4505C47.6938 14.1391 47.9864 13.7095 48.1851 13.1617C48.3892 12.6086 48.4912 11.9723 48.4912 11.2527C48.4912 10.5385 48.3919 9.91024 48.1932 9.36788C47.9945 8.82551 47.7018 8.40129 47.3152 8.0952C46.9286 7.78911 46.4533 7.63607 45.8895 7.63607C45.331 7.63607 44.8584 7.78374 44.4718 8.07909C44.0905 8.37444 43.7979 8.79329 43.5938 9.33566C43.3898 9.87802 43.2877 10.517 43.2877 11.2527Z" fill="#00A070"/>
<path d="M59.1923 17.6806C57.9411 17.6806 56.8591 17.4148 55.9462 16.8831C55.0387 16.3461 54.3379 15.5997 53.8439 14.6439C53.3498 13.6826 53.1028 12.5684 53.1028 11.3011C53.1028 10.023 53.3498 8.90606 53.8439 7.95021C54.3379 6.98899 55.0387 6.24257 55.9462 5.71094C56.8591 5.17395 57.9411 4.90545 59.1923 4.90545C60.4435 4.90545 61.5229 5.17395 62.4304 5.71094C63.3433 6.24257 64.0468 6.98899 64.5408 7.95021C65.0348 8.90606 65.2819 10.023 65.2819 11.3011C65.2819 12.5684 65.0348 13.6826 64.5408 14.6439C64.0468 15.5997 63.3433 16.3461 62.4304 16.8831C61.5229 17.4148 60.4435 17.6806 59.1923 17.6806ZM59.2084 15.0224C59.7777 15.0224 60.2529 14.8613 60.6342 14.5391C61.0154 14.2116 61.3027 13.7659 61.496 13.202C61.6947 12.6382 61.7941 11.9965 61.7941 11.2769C61.7941 10.5573 61.6947 9.91561 61.496 9.35177C61.3027 8.78792 61.0154 8.34222 60.6342 8.01465C60.2529 7.68708 59.7777 7.5233 59.2084 7.5233C58.6339 7.5233 58.1506 7.68708 57.7586 8.01465C57.3719 8.34222 57.0793 8.78792 56.8806 9.35177C56.6873 9.91561 56.5906 10.5573 56.5906 11.2769C56.5906 11.9965 56.6873 12.6382 56.8806 13.202C57.0793 13.7659 57.3719 14.2116 57.7586 14.5391C58.1506 14.8613 58.6339 15.0224 59.2084 15.0224Z" fill="#00A070"/>
<path d="M70.264 0.942427V17.4389H66.8326V0.942427H70.264Z" fill="#00A070"/>
<path d="M72.3323 17.4389V5.06655H75.7637V17.4389H72.3323ZM74.056 3.47167C73.5459 3.47167 73.1082 3.30252 72.7431 2.96421C72.3833 2.62054 72.2034 2.20973 72.2034 1.73181C72.2034 1.25925 72.3833 0.853823 72.7431 0.515516C73.1082 0.171839 73.5459 0 74.056 0C74.5662 0 75.0011 0.171839 75.3609 0.515516C75.7261 0.853823 75.9086 1.25925 75.9086 1.73181C75.9086 2.20973 75.7261 2.62054 75.3609 2.96421C75.0011 3.30252 74.5662 3.47167 74.056 3.47167Z" fill="#00A070"/>
<path d="M88.1261 8.59461L84.9847 8.78792C84.931 8.51943 84.8155 8.27778 84.6383 8.06298C84.4611 7.84281 84.2275 7.66829 83.9376 7.53941C83.653 7.40516 83.312 7.33804 82.9146 7.33804C82.383 7.33804 81.9346 7.45081 81.5694 7.67634C81.2043 7.89651 81.0217 8.19186 81.0217 8.56239C81.0217 8.85773 81.1398 9.10744 81.3761 9.3115C81.6124 9.51555 82.0178 9.67934 82.5924 9.80284L84.8317 10.2539C86.0345 10.5009 86.9313 10.8983 87.522 11.4461C88.1127 11.9938 88.408 12.7134 88.408 13.6048C88.408 14.4156 88.1691 15.1272 87.6912 15.7393C87.2186 16.3515 86.5688 16.8294 85.7419 17.1731C84.9203 17.5114 83.9725 17.6806 82.8985 17.6806C81.2606 17.6806 79.9557 17.3396 78.9838 16.6576C78.0172 15.9702 77.4507 15.0359 77.2842 13.8545L80.6592 13.6773C80.7612 14.1767 81.0082 14.5579 81.4003 14.8211C81.7923 15.0788 82.2944 15.2077 82.9065 15.2077C83.508 15.2077 83.9913 15.0922 84.3564 14.8613C84.7269 14.6251 84.9149 14.3217 84.9203 13.9511C84.9149 13.6397 84.7833 13.3846 84.5256 13.1859C84.2678 12.9819 83.8704 12.8261 83.3334 12.7187L81.1908 12.2918C79.9826 12.0502 79.0831 11.6313 78.4924 11.0352C77.9071 10.4392 77.6144 9.67934 77.6144 8.75571C77.6144 7.96095 77.8292 7.27628 78.2588 6.7017C78.6938 6.12711 79.3033 5.68409 80.0873 5.37264C80.8767 5.06118 81.8003 4.90545 82.8582 4.90545C84.4209 4.90545 85.6506 5.2357 86.5474 5.89621C87.4495 6.55671 87.9758 7.45618 88.1261 8.59461Z" fill="#00A070"/>
</svg>
