<svg width="68" height="68" viewBox="0 0 68 68" fill="none" xmlns="http://www.w3.org/2000/svg">
<path d="M0 34C0 15.2223 15.2223 0 34 0C52.7777 0 68 15.2223 68 34C68 52.7777 52.7777 68 34 68C15.2223 68 0 52.7777 0 34Z" fill="#00A070" fill-opacity="0.05"/>
<path d="M0.5 34C0.5 15.4985 15.4985 0.5 34 0.5C52.5015 0.5 67.5 15.4985 67.5 34C67.5 52.5015 52.5015 67.5 34 67.5C15.4985 67.5 0.5 52.5015 0.5 34Z" stroke="#00A070" stroke-opacity="0.1"/>
<path d="M26.5 46H41.5M25 25L34 23.5L43 25M25 25L29.5 34C29.5 35.1935 29.0259 36.3381 28.182 37.182C27.3381 38.0259 26.1935 38.5 25 38.5C23.8065 38.5 22.6619 38.0259 21.818 37.182C20.9741 36.3381 20.5 35.1935 20.5 34L25 25ZM43 25L47.5 34C47.5 35.1935 47.0259 36.3381 46.182 37.182C45.3381 38.0259 44.1935 38.5 43 38.5C41.8065 38.5 40.6619 38.0259 39.818 37.182C38.9741 36.3381 38.5 35.1935 38.5 34L43 25ZM34 20.5V46" stroke="#00A070" stroke-width="2.2" stroke-linecap="round" stroke-linejoin="round"/>
</svg>
