<svg width="68" height="68" viewBox="0 0 68 68" fill="none" xmlns="http://www.w3.org/2000/svg">
<path d="M0 34C0 15.2223 15.2223 0 34 0C52.7777 0 68 15.2223 68 34C68 52.7777 52.7777 68 34 68C15.2223 68 0 52.7777 0 34Z" fill="#00A070" fill-opacity="0.05"/>
<path d="M0.5 34C0.5 15.4985 15.4985 0.5 34 0.5C52.5015 0.5 67.5 15.4985 67.5 34C67.5 52.5015 52.5015 67.5 34 67.5C15.4985 67.5 0.5 52.5015 0.5 34Z" stroke="#00A070" stroke-opacity="0.1"/>
<path d="M36.25 25.75L42.25 31.75M38.5 44.5L41.5 47.5L47.5 41.5M22 46H28L43.75 30.25C44.144 29.856 44.4565 29.3883 44.6697 28.8736C44.8829 28.3588 44.9926 27.8071 44.9926 27.25C44.9926 26.6928 44.8829 26.1411 44.6697 25.6264C44.4565 25.1116 44.144 24.6439 43.75 24.25C43.356 23.856 42.8883 23.5435 42.3736 23.3303C41.8588 23.1171 41.3072 23.0073 40.75 23.0073C40.1928 23.0073 39.6412 23.1171 39.1264 23.3303C38.6117 23.5435 38.144 23.856 37.75 24.25L22 40V46Z" stroke="#00A070" stroke-width="2.2" stroke-linecap="round" stroke-linejoin="round"/>
</svg>
