<svg width="68" height="68" viewBox="0 0 68 68" fill="none" xmlns="http://www.w3.org/2000/svg">
<path d="M0 34C0 15.2223 15.2223 0 34 0C52.7777 0 68 15.2223 68 34C68 52.7777 52.7777 68 34 68C15.2223 68 0 52.7777 0 34Z" fill="#00A070" fill-opacity="0.05"/>
<path d="M0.5 34C0.5 15.4985 15.4985 0.5 34 0.5C52.5015 0.5 67.5 15.4985 67.5 34C67.5 52.5015 52.5015 67.5 34 67.5C15.4985 67.5 0.5 52.5015 0.5 34Z" stroke="#00A070" stroke-opacity="0.1"/>
<path d="M20.5 31H47.5M26.5 38.5H26.515M32.5 38.5H35.5M20.5 28C20.5 26.8065 20.9741 25.6619 21.818 24.818C22.6619 23.9741 23.8065 23.5 25 23.5H43C44.1935 23.5 45.3381 23.9741 46.182 24.818C47.0259 25.6619 47.5 26.8065 47.5 28V40C47.5 41.1935 47.0259 42.3381 46.182 43.182C45.3381 44.0259 44.1935 44.5 43 44.5H25C23.8065 44.5 22.6619 44.0259 21.818 43.182C20.9741 42.3381 20.5 41.1935 20.5 40V28Z" stroke="#00A070" stroke-width="2.2" stroke-linecap="round" stroke-linejoin="round"/>
</svg>
