<svg width="10" height="8" viewBox="0 0 10 8" fill="none" xmlns="http://www.w3.org/2000/svg">
<rect width="10" height="7.5" transform="translate(0 0.25)" fill="white"/>
<path fill-rule="evenodd" clip-rule="evenodd" d="M0 2.75H10V0.25H0V2.75Z" fill="#04AAC8"/>
<path fill-rule="evenodd" clip-rule="evenodd" d="M0 7.75H10V5.25H0V7.75Z" fill="#23C840"/>
<rect width="10" height="0.178571" transform="translate(0 2.75)" fill="#FF0000"/>
<rect width="10" height="0.178571" transform="translate(0 5.25)" fill="#FF0000"/>
<path fill-rule="evenodd" clip-rule="evenodd" d="M1.66643 2.15465C1.81332 2.15465 1.94985 2.11031 2.06337 2.03429C2.05022 2.03516 2.03695 2.0356 2.02358 2.0356C1.69484 2.0356 1.42834 1.7691 1.42834 1.44036C1.42834 1.11162 1.69484 0.845122 2.02358 0.845122C2.03695 0.845122 2.05022 0.845563 2.06337 0.846431C1.94985 0.770411 1.81332 0.726074 1.66643 0.726074C1.27195 0.726074 0.952148 1.04587 0.952148 1.44036C0.952148 1.83485 1.27195 2.15465 1.66643 2.15465ZM2.85691 1.91655C2.85691 2.04805 2.75031 2.15465 2.61882 2.15465C2.48732 2.15465 2.38072 2.04805 2.38072 1.91655C2.38072 1.78505 2.48732 1.67846 2.61882 1.67846C2.75031 1.67846 2.85691 1.78505 2.85691 1.91655ZM3.5712 1.20226C3.70269 1.20226 3.80929 1.09567 3.80929 0.964169C3.80929 0.832673 3.70269 0.726074 3.5712 0.726074C3.4397 0.726074 3.3331 0.832673 3.3331 0.964169C3.3331 1.09567 3.4397 1.20226 3.5712 1.20226ZM4.76167 0.964169C4.76167 1.09567 4.65507 1.20226 4.52358 1.20226C4.39208 1.20226 4.28548 1.09567 4.28548 0.964169C4.28548 0.832673 4.39208 0.726074 4.52358 0.726074C4.65507 0.726074 4.76167 0.832673 4.76167 0.964169ZM4.52358 2.15465C4.65507 2.15465 4.76167 2.04805 4.76167 1.91655C4.76167 1.78505 4.65507 1.67846 4.52358 1.67846C4.39208 1.67846 4.28548 1.78505 4.28548 1.91655C4.28548 2.04805 4.39208 2.15465 4.52358 2.15465ZM3.80929 1.91655C3.80929 2.04805 3.70269 2.15465 3.5712 2.15465C3.4397 2.15465 3.3331 2.04805 3.3331 1.91655C3.3331 1.78505 3.4397 1.67846 3.5712 1.67846C3.70269 1.67846 3.80929 1.78505 3.80929 1.91655Z" fill="white"/>
</svg>
