<svg width="11" height="9" viewBox="0 0 11 9" fill="none" xmlns="http://www.w3.org/2000/svg">
<path d="M4.704 7.894C4.704 7.942 4.68533 7.966 4.648 7.966H3.728C3.67467 7.966 3.648 7.942 3.648 7.894V7.63C3.65333 7.60867 3.656 7.58733 3.656 7.566C3.656 7.54467 3.656 7.52867 3.656 7.518C3.656 7.406 3.616 7.35 3.536 7.35C3.33867 7.526 3.104 7.68333 2.832 7.822C2.56 7.96067 2.264 8.03 1.944 8.03C1.512 8.03 1.14133 7.86467 0.832 7.534C0.528 7.20867 0.376 6.84333 0.376 6.438V0.958C0.376 0.904666 0.408 0.878 0.472 0.878H1.392C1.45067 0.878 1.48 0.899333 1.48 0.942V6.134C1.48 6.326 1.536 6.48333 1.648 6.606C1.80267 6.77667 2.04533 6.862 2.376 6.862C2.74933 6.862 3.05067 6.718 3.28 6.43C3.49333 6.16333 3.6 5.84333 3.6 5.47V1.054C3.6 1.01667 3.6 0.976666 3.6 0.934C3.61067 0.896666 3.63733 0.878 3.68 0.878H4.648C4.68533 0.878 4.704 0.904666 4.704 0.958V7.894ZM10.0154 7.926C10.0154 7.99 9.9781 8.022 9.90344 8.022H5.56744C5.50344 8.022 5.47144 7.998 5.47144 7.95V6.926C5.47144 6.89933 5.47144 6.87533 5.47144 6.854C5.47677 6.83267 5.48744 6.81133 5.50344 6.79C5.66344 6.534 5.9781 6.038 6.44744 5.302C6.7941 4.76333 7.25277 4.04867 7.82344 3.158C8.30344 2.41133 8.5621 2.01133 8.59944 1.958C8.62077 1.926 8.63144 1.902 8.63144 1.886C8.63144 1.854 8.58877 1.838 8.50344 1.838H5.63944C5.54877 1.838 5.50344 1.80333 5.50344 1.734V1.022C5.50344 0.942 5.53544 0.902 5.59944 0.902H9.82344C9.9301 0.902 9.98344 0.952667 9.98344 1.054V1.838C9.98344 1.85933 9.98077 1.878 9.97544 1.894C9.9701 1.91 9.96477 1.92333 9.95944 1.934C9.8421 2.14733 9.7701 2.278 9.74344 2.326C9.63677 2.502 9.46077 2.766 9.21544 3.118C9.19944 3.13933 8.96477 3.49933 8.51144 4.198C8.1541 4.74733 7.7861 5.32067 7.40744 5.918C7.02877 6.51 6.83944 6.82467 6.83944 6.862C6.83944 6.926 6.8661 6.958 6.91944 6.958H9.90344C9.9781 6.958 10.0154 6.98467 10.0154 7.038V7.926Z" fill="#04AAC8"/>
</svg>
