<svg width="20" height="20" viewBox="0 0 20 20" fill="none" xmlns="http://www.w3.org/2000/svg">
<path d="M16.3609 6.66418C16.3717 6.81002 16.3717 6.95502 16.3717 7.10002C16.3717 11.5375 12.9942 16.6508 6.82175 16.6508C4.92008 16.6508 3.15341 16.1 1.66675 15.1433C1.93675 15.1742 2.19675 15.185 2.47758 15.185C4.04675 15.185 5.49091 14.655 6.64508 13.7508C5.16925 13.72 3.93258 12.7533 3.50591 11.4233C3.71341 11.4542 3.92175 11.475 4.14008 11.475C4.44091 11.475 4.74341 11.4333 5.02425 11.3608C3.48508 11.0492 2.33258 9.69835 2.33258 8.06668V8.02501C2.78008 8.27418 3.29925 8.43001 3.84925 8.45085C2.94508 7.84918 2.35258 6.82002 2.35258 5.65585C2.35258 5.03252 2.51841 4.46085 2.80925 3.96252C4.46175 5.99835 6.94591 7.32918 9.73091 7.47502C9.67925 7.22502 9.64758 6.96585 9.64758 6.70585C9.64758 4.85585 11.1442 3.34918 13.0042 3.34918C13.9709 3.34918 14.8434 3.75418 15.4567 4.40918C16.2151 4.26335 16.9417 3.98252 17.5867 3.59835C17.3376 4.37752 16.8067 5.03252 16.1109 5.44835C16.7867 5.37502 17.4417 5.18835 18.0434 4.92835C17.5867 5.59335 17.0159 6.18585 16.3609 6.66418Z" fill="white"/>
</svg>
