<svg width="20" height="20" viewBox="0 0 20 20" fill="none" xmlns="http://www.w3.org/2000/svg">
<path d="M17.9942 6.00253C17.8025 5.28753 17.24 4.72336 16.5259 4.53086C15.2209 4.17253 10 4.16669 10 4.16669C10 4.16669 4.78003 4.16086 3.4742 4.50336C2.7742 4.69419 2.19586 5.27086 2.00253 5.98503C1.65836 7.29003 1.65503 9.99669 1.65503 9.99669C1.65503 9.99669 1.6517 12.7167 1.99336 14.0084C2.18503 14.7225 2.74753 15.2867 3.46253 15.4792C4.78086 15.8375 9.98753 15.8434 9.98753 15.8434C9.98753 15.8434 15.2084 15.8492 16.5134 15.5075C17.2267 15.3159 17.7917 14.7525 17.9859 14.0384C18.3309 12.7342 18.3334 10.0284 18.3334 10.0284C18.3334 10.0284 18.35 7.30753 17.9942 6.00253ZM8.33003 12.5042L8.3342 7.50419L12.6734 10.0084L8.33003 12.5042Z" fill="#FF0000"/>
</svg>
